<svg xmlns="http://www.w3.org/2000/svg" viewBox="0 0 100 100"><path d="M38.7 99.3H3c-1 0-1.9-.8-1.9-1.9V2.7c0-1 .8-1.9 1.9-1.9h60c.5 0 1 .2 1.3.5l17.3 17c.4.4.6.8.6 1.4V37c0 1-.8 1.9-1.9 1.9-1 0-1.9-.8-1.9-1.9V20.5L62.2 4.6H4.9v90.8h33.8c1 0 1.9.8 1.9 1.9 0 1.1-.8 2-1.9 2z" fill="#ffffff"/><path d="M16.1 33.3h40.1c1.2 0 2.2-1 2.2-2.2 0-1.2-1-2.2-2.2-2.2H16.1c-1.2 0-2.2 1-2.2 2.2 0 1.3 1 2.2 2.2 2.2zM16.3 21.2h40.1c1.2 0 2.2-1 2.2-2.2s-1-2.2-2.2-2.2H16.3c-1.2 0-2.2 1-2.2 2.2s1 2.2 2.2 2.2zM16.3 45.7h23.4c1.2 0 2.2-1 2.2-2.2s-1-2.2-2.2-2.2H16.3c-1.2 0-2.2 1-2.2 2.2s1 2.2 2.2 2.2zM30.8 58.5H16.2c-1.2 0-2.2-1-2.2-2.2s1-2.2 2.2-2.2h14.6c1.2 0 2.2 1 2.2 2.2s-1 2.2-2.2 2.2zM98.1 68L65.2 42c-.8-.6-1.9-.6-2.7 0L29.9 68c-.9.7-1.1 2.1-.3 3 .7.9 2.1 1.1 3 .3l6.2-5v24.5c0 1 .8 1.9 1.9 1.9h15.5c1 0 1.9-.8 1.9-1.9V75.6c0-3.6 2.3-6.5 5.1-6.5h.6c2.8 0 5.1 2.9 5.1 6.5v15.3c0 1 .8 1.9 1.9 1.9H87c1 0 1.9-.8 1.9-1.9V66.2l6.5 5.2c.4.3.9.5 1.3.5.6 0 1.3-.3 1.7-.8.8-1.1.6-2.4-.3-3.1zM85.2 89H72.7V75.6c0-5.7-4-10.2-8.9-10.2h-.6c-4.9 0-8.9 4.6-8.9 10.2V89H42.6V63.3l21.3-17 21.3 16.8V89z" fill="#ffffff"/><circle cx="65.3" cy="79" r="2.1" fill="#ffffff"/></svg>